<svg width="16" height="17" viewBox="0 0 16 17" fill="none" xmlns="http://www.w3.org/2000/svg">
<path d="M8.00065 9.16671C8.36884 9.16671 8.66732 8.86823 8.66732 8.50004C8.66732 8.13185 8.36884 7.83337 8.00065 7.83337C7.63246 7.83337 7.33398 8.13185 7.33398 8.50004C7.33398 8.86823 7.63246 9.16671 8.00065 9.16671Z" stroke="#0A0A0B" stroke-width="2" stroke-linecap="round" stroke-linejoin="round"/>
<path d="M8.00065 4.49996C8.36884 4.49996 8.66732 4.20148 8.66732 3.83329C8.66732 3.4651 8.36884 3.16663 8.00065 3.16663C7.63246 3.16663 7.33398 3.4651 7.33398 3.83329C7.33398 4.20148 7.63246 4.49996 8.00065 4.49996Z" stroke="#0A0A0B" stroke-width="2" stroke-linecap="round" stroke-linejoin="round"/>
<path d="M8.00065 13.8333C8.36884 13.8333 8.66732 13.5349 8.66732 13.1667C8.66732 12.7985 8.36884 12.5 8.00065 12.5C7.63246 12.5 7.33398 12.7985 7.33398 13.1667C7.33398 13.5349 7.63246 13.8333 8.00065 13.8333Z" stroke="#0A0A0B" stroke-width="2" stroke-linecap="round" stroke-linejoin="round"/>
</svg>
