<svg width="88" height="40" viewBox="0 0 88 40" fill="none" xmlns="http://www.w3.org/2000/svg">
<path d="M1.08931 8.69602V6.04545H15.0154V8.69602H9.62056V23.5H6.4842V8.69602H1.08931ZM17.5637 23.5V10.4091H20.649V23.5H17.5637ZM19.1149 8.55114C18.6262 8.55114 18.2058 8.3892 17.8535 8.06534C17.5012 7.73579 17.3251 7.34091 17.3251 6.88068C17.3251 6.41477 17.5012 6.01989 17.8535 5.69602C18.2058 5.36648 18.6262 5.2017 19.1149 5.2017C19.6092 5.2017 20.0297 5.36648 20.3762 5.69602C20.7285 6.01989 20.9047 6.41477 20.9047 6.88068C20.9047 7.34091 20.7285 7.73579 20.3762 8.06534C20.0297 8.3892 19.6092 8.55114 19.1149 8.55114ZM27.5886 23.7642C26.7591 23.7642 26.0119 23.6165 25.3471 23.321C24.688 23.0199 24.1653 22.5767 23.7789 21.9915C23.3983 21.4062 23.2079 20.6847 23.2079 19.8267C23.2079 19.0881 23.3443 18.4773 23.617 17.9943C23.8897 17.5114 24.2619 17.125 24.7335 16.8352C25.2051 16.5455 25.7363 16.3267 26.3272 16.179C26.9238 16.0256 27.5403 15.9148 28.1767 15.8466C28.9437 15.767 29.5659 15.696 30.0431 15.6335C30.5204 15.5653 30.867 15.4631 31.0829 15.3267C31.3045 15.1847 31.4153 14.9659 31.4153 14.6705V14.6193C31.4153 13.9773 31.225 13.4801 30.8443 13.1278C30.4636 12.7756 29.9153 12.5994 29.1994 12.5994C28.4437 12.5994 27.8443 12.7642 27.4011 13.0938C26.9636 13.4233 26.6681 13.8125 26.5147 14.2614L23.6341 13.8523C23.8613 13.0568 24.2363 12.392 24.7591 11.858C25.2818 11.3182 25.921 10.9148 26.6767 10.6477C27.4324 10.375 28.2676 10.2386 29.1824 10.2386C29.813 10.2386 30.4409 10.3125 31.0659 10.4602C31.6909 10.608 32.2619 10.8523 32.7789 11.1932C33.296 11.5284 33.7108 11.9858 34.0233 12.5653C34.3414 13.1449 34.5005 13.8693 34.5005 14.7386V23.5H31.5346V21.7017H31.4324C31.2449 22.0653 30.9806 22.4062 30.6397 22.7244C30.3045 23.0369 29.8812 23.2898 29.3699 23.483C28.8642 23.6705 28.2704 23.7642 27.5886 23.7642ZM28.3897 21.4972C29.0091 21.4972 29.546 21.375 30.0005 21.1307C30.4551 20.8807 30.8045 20.5511 31.0488 20.142C31.2988 19.733 31.4238 19.2869 31.4238 18.804V17.2614C31.3272 17.3409 31.1625 17.4148 30.9295 17.483C30.7022 17.5511 30.4466 17.6108 30.1625 17.6619C29.8784 17.7131 29.5971 17.7585 29.3187 17.7983C29.0403 17.8381 28.7988 17.8722 28.5943 17.9006C28.1341 17.9631 27.7221 18.0653 27.3585 18.2074C26.9949 18.3494 26.7079 18.5483 26.4977 18.804C26.2875 19.054 26.1824 19.3778 26.1824 19.7756C26.1824 20.3438 26.3897 20.7727 26.8045 21.0625C27.2193 21.3523 27.7477 21.4972 28.3897 21.4972ZM37.6028 23.5V10.4091H40.5517V12.6335H40.7051C40.9778 11.8835 41.4295 11.2983 42.0602 10.8778C42.6909 10.4517 43.4437 10.2386 44.3187 10.2386C45.2051 10.2386 45.9522 10.4545 46.5602 10.8864C47.1738 11.3125 47.6056 11.8949 47.8556 12.6335H47.992C48.2818 11.9062 48.7704 11.3267 49.4579 10.8949C50.1511 10.4574 50.9721 10.2386 51.921 10.2386C53.1255 10.2386 54.1085 10.6193 54.8699 11.3807C55.6312 12.142 56.0119 13.2528 56.0119 14.7131V23.5H52.9181V15.1903C52.9181 14.3778 52.7022 13.7841 52.2704 13.4091C51.8386 13.0284 51.3102 12.8381 50.6852 12.8381C49.9409 12.8381 49.3585 13.071 48.938 13.5369C48.5233 13.9972 48.3159 14.5966 48.3159 15.3352V23.5H45.2903V15.0625C45.2903 14.3864 45.0858 13.8466 44.6767 13.4432C44.2733 13.0398 43.7449 12.8381 43.0914 12.8381C42.6483 12.8381 42.2449 12.9517 41.8812 13.179C41.5176 13.4006 41.2278 13.7159 41.0119 14.125C40.796 14.5284 40.688 15 40.688 15.5398V23.5H37.6028ZM64.9373 23.7557C63.6248 23.7557 62.4913 23.483 61.5368 22.9375C60.5879 22.3864 59.8578 21.608 59.3464 20.6023C58.835 19.5909 58.5794 18.4006 58.5794 17.0312C58.5794 15.6847 58.835 14.5028 59.3464 13.4858C59.8635 12.4631 60.585 11.6676 61.5112 11.0994C62.4373 10.5256 63.5254 10.2386 64.7754 10.2386C65.5822 10.2386 66.3436 10.3693 67.0595 10.6307C67.7811 10.8864 68.4174 11.2841 68.9686 11.8239C69.5254 12.3636 69.9629 13.0511 70.2811 13.8864C70.5993 14.7159 70.7583 15.7045 70.7583 16.8523V17.7983H60.0282V15.7188H67.801C67.7953 15.1278 67.6674 14.6023 67.4174 14.142C67.1674 13.6761 66.818 13.3097 66.3691 13.0426C65.926 12.7756 65.4089 12.642 64.818 12.642C64.1873 12.642 63.6333 12.7955 63.1561 13.1023C62.6788 13.4034 62.3066 13.8011 62.0396 14.2955C61.7782 14.7841 61.6447 15.321 61.639 15.9062V17.7216C61.639 18.483 61.7782 19.1364 62.0566 19.6818C62.335 20.2216 62.7243 20.6364 63.2243 20.9261C63.7243 21.2102 64.3095 21.3523 64.9799 21.3523C65.4288 21.3523 65.8351 21.2898 66.1987 21.1648C66.5623 21.0341 66.8777 20.8438 67.1447 20.5938C67.4118 20.3438 67.6135 20.0341 67.7498 19.6648L70.6305 19.9886C70.4487 20.75 70.1021 21.4148 69.5907 21.983C69.0851 22.5455 68.4373 22.983 67.6476 23.2955C66.8578 23.6023 65.9544 23.7557 64.9373 23.7557ZM78.2264 23.7301C77.198 23.7301 76.2775 23.4659 75.465 22.9375C74.6525 22.4091 74.0105 21.642 73.5389 20.6364C73.0673 19.6307 72.8315 18.4091 72.8315 16.9716C72.8315 15.517 73.0701 14.2898 73.5474 13.2898C74.0304 12.2841 74.6809 11.5256 75.4991 11.0142C76.3173 10.4972 77.2292 10.2386 78.2349 10.2386C79.002 10.2386 79.6326 10.3693 80.127 10.6307C80.6213 10.8864 81.0133 11.196 81.3031 11.5597C81.5929 11.9176 81.8173 12.2557 81.9764 12.5739H82.1042V6.04545H85.198V23.5H82.1639V21.4375H81.9764C81.8173 21.7557 81.5872 22.0937 81.286 22.4517C80.9849 22.804 80.5872 23.1051 80.0929 23.3551C79.5985 23.6051 78.9764 23.7301 78.2264 23.7301ZM79.0872 21.1989C79.7406 21.1989 80.2974 21.0227 80.7576 20.6705C81.2179 20.3125 81.5673 19.8153 81.8059 19.179C82.0446 18.5426 82.1639 17.8011 82.1639 16.9545C82.1639 16.108 82.0446 15.3722 81.8059 14.7472C81.573 14.1222 81.2264 13.6364 80.7662 13.2898C80.3116 12.9432 79.752 12.7699 79.0872 12.7699C78.3997 12.7699 77.8258 12.9489 77.3656 13.3068C76.9054 13.6648 76.5588 14.1591 76.3258 14.7898C76.0929 15.4205 75.9764 16.142 75.9764 16.9545C75.9764 17.7727 76.0929 18.5028 76.3258 19.1449C76.5645 19.7812 76.9139 20.2841 77.3741 20.6534C77.84 21.017 78.411 21.1989 79.0872 21.1989Z" fill="#4B0082"/>
<path d="M2.54492 31.7891C3.2819 31.7891 3.81966 31.9401 4.1582 32.2422C4.49674 32.5443 4.66602 32.9674 4.66602 33.5117C4.66602 33.7591 4.62695 33.9948 4.54883 34.2188C4.47331 34.4401 4.34831 34.6367 4.17383 34.8086C3.99935 34.9779 3.76888 35.112 3.48242 35.2109C3.19857 35.3099 2.84831 35.3594 2.43164 35.3594H1.82227V37.5H0.884766V31.7891H2.54492ZM2.48242 32.5664H1.82227V34.5781H2.33398C2.62826 34.5781 2.87826 34.5443 3.08398 34.4766C3.28971 34.4062 3.44596 34.2956 3.55273 34.1445C3.65951 33.9935 3.71289 33.7943 3.71289 33.5469C3.71289 33.2161 3.61263 32.9701 3.41211 32.8086C3.21419 32.6471 2.9043 32.5664 2.48242 32.5664ZM6.63086 31.4219V32.9492C6.63086 33.1081 6.62565 33.263 6.61523 33.4141C6.60742 33.5651 6.59831 33.6823 6.58789 33.7656H6.63867C6.72982 33.6146 6.8418 33.4909 6.97461 33.3945C7.10742 33.2956 7.25586 33.2214 7.41992 33.1719C7.58659 33.1224 7.76367 33.0977 7.95117 33.0977C8.2819 33.0977 8.56315 33.1536 8.79492 33.2656C9.02669 33.375 9.20378 33.5456 9.32617 33.7773C9.45117 34.0091 9.51367 34.3099 9.51367 34.6797V37.5H8.5957V34.8516C8.5957 34.5156 8.52669 34.2643 8.38867 34.0977C8.25065 33.9284 8.03711 33.8438 7.74805 33.8438C7.4694 33.8438 7.24805 33.9023 7.08398 34.0195C6.92253 34.1341 6.80664 34.3047 6.73633 34.5312C6.66602 34.7552 6.63086 35.0286 6.63086 35.3516V37.5H5.71289V31.4219H6.63086ZM12.4941 33.0938C13.041 33.0938 13.4538 33.2148 13.7324 33.457C14.0137 33.6992 14.1543 34.0768 14.1543 34.5898V37.5H13.502L13.3262 36.8867H13.2949C13.1725 37.043 13.0462 37.1719 12.916 37.2734C12.7858 37.375 12.6348 37.4505 12.4629 37.5C12.2936 37.5521 12.0866 37.5781 11.8418 37.5781C11.584 37.5781 11.3535 37.5312 11.1504 37.4375C10.9473 37.3411 10.7871 37.1953 10.6699 37C10.5527 36.8047 10.4941 36.5573 10.4941 36.2578C10.4941 35.8125 10.6595 35.4779 10.9902 35.2539C11.3236 35.0299 11.8262 34.9062 12.498 34.8828L13.248 34.8555V34.6289C13.248 34.3294 13.1777 34.1159 13.0371 33.9883C12.8991 33.8607 12.7038 33.7969 12.4512 33.7969C12.235 33.7969 12.0254 33.8281 11.8223 33.8906C11.6191 33.9531 11.4212 34.0299 11.2285 34.1211L10.9316 33.4727C11.1426 33.3607 11.3822 33.2695 11.6504 33.1992C11.9212 33.1289 12.2025 33.0938 12.4941 33.0938ZM13.2441 35.4336L12.6855 35.4531C12.2272 35.4688 11.9056 35.5469 11.7207 35.6875C11.5358 35.8281 11.4434 36.0208 11.4434 36.2656C11.4434 36.4792 11.5072 36.6354 11.6348 36.7344C11.7624 36.8307 11.9303 36.8789 12.1387 36.8789C12.4564 36.8789 12.7194 36.7891 12.9277 36.6094C13.1387 36.4271 13.2441 36.1602 13.2441 35.8086V35.4336ZM17.6309 33.0938C17.7038 33.0938 17.7832 33.0977 17.8691 33.1055C17.9551 33.1133 18.0293 33.1237 18.0918 33.1367L18.0059 33.9961C17.9512 33.9805 17.8835 33.9688 17.8027 33.9609C17.7246 33.9531 17.6543 33.9492 17.5918 33.9492C17.4277 33.9492 17.2715 33.9766 17.123 34.0312C16.9746 34.0833 16.8431 34.1641 16.7285 34.2734C16.6139 34.3802 16.5241 34.5143 16.459 34.6758C16.3939 34.8372 16.3613 35.0247 16.3613 35.2383V37.5H15.4395V33.1758H16.1582L16.2832 33.9375H16.3262C16.4121 33.7839 16.5189 33.6432 16.6465 33.5156C16.7741 33.388 16.9199 33.2865 17.084 33.2109C17.2507 33.1328 17.4329 33.0938 17.6309 33.0938ZM23.7793 33.0938C24.2637 33.0938 24.6283 33.2188 24.873 33.4688C25.1204 33.7188 25.2441 34.1198 25.2441 34.6719V37.5H24.3262V34.8359C24.3262 34.5078 24.2624 34.2604 24.1348 34.0938C24.0072 33.9271 23.8132 33.8438 23.5527 33.8438C23.1882 33.8438 22.9251 33.9609 22.7637 34.1953C22.6048 34.4271 22.5254 34.7643 22.5254 35.207V37.5H21.6074V34.8359C21.6074 34.6172 21.5788 34.4349 21.5215 34.2891C21.4668 34.1406 21.3822 34.0299 21.2676 33.957C21.153 33.8815 21.0085 33.8438 20.834 33.8438C20.5814 33.8438 20.3796 33.901 20.2285 34.0156C20.0801 34.1302 19.9733 34.2995 19.9082 34.5234C19.8431 34.7448 19.8105 35.0169 19.8105 35.3398V37.5H18.8926V33.1758H19.6074L19.7363 33.7578H19.7871C19.8757 33.6068 19.985 33.4831 20.1152 33.3867C20.248 33.2878 20.3952 33.2148 20.5566 33.168C20.7181 33.1185 20.8861 33.0938 21.0605 33.0938C21.3835 33.0938 21.6556 33.151 21.877 33.2656C22.0983 33.3776 22.2637 33.5495 22.373 33.7812H22.4434C22.5788 33.5469 22.7676 33.3737 23.0098 33.2617C23.252 33.1497 23.5085 33.0938 23.7793 33.0938ZM28.2207 33.0938C28.7676 33.0938 29.1803 33.2148 29.459 33.457C29.7402 33.6992 29.8809 34.0768 29.8809 34.5898V37.5H29.2285L29.0527 36.8867H29.0215C28.8991 37.043 28.7728 37.1719 28.6426 37.2734C28.5124 37.375 28.3613 37.4505 28.1895 37.5C28.0202 37.5521 27.8132 37.5781 27.5684 37.5781C27.3105 37.5781 27.0801 37.5312 26.877 37.4375C26.6738 37.3411 26.5137 37.1953 26.3965 37C26.2793 36.8047 26.2207 36.5573 26.2207 36.2578C26.2207 35.8125 26.3861 35.4779 26.7168 35.2539C27.0501 35.0299 27.5527 34.9062 28.2246 34.8828L28.9746 34.8555V34.6289C28.9746 34.3294 28.9043 34.1159 28.7637 33.9883C28.6257 33.8607 28.4303 33.7969 28.1777 33.7969C27.9616 33.7969 27.752 33.8281 27.5488 33.8906C27.3457 33.9531 27.1478 34.0299 26.9551 34.1211L26.6582 33.4727C26.8691 33.3607 27.1087 33.2695 27.377 33.1992C27.6478 33.1289 27.929 33.0938 28.2207 33.0938ZM28.9707 35.4336L28.4121 35.4531C27.9538 35.4688 27.6322 35.5469 27.4473 35.6875C27.2624 35.8281 27.1699 36.0208 27.1699 36.2656C27.1699 36.4792 27.2337 36.6354 27.3613 36.7344C27.4889 36.8307 27.6569 36.8789 27.8652 36.8789C28.1829 36.8789 28.446 36.7891 28.6543 36.6094C28.8652 36.4271 28.9707 36.1602 28.9707 35.8086V35.4336ZM36.6348 35.9453C36.6348 36.2839 36.5514 36.5755 36.3848 36.8203C36.2207 37.0651 35.9837 37.2526 35.6738 37.3828C35.3665 37.513 34.9993 37.5781 34.5723 37.5781C34.3639 37.5781 34.1647 37.5664 33.9746 37.543C33.7845 37.5195 33.6048 37.4857 33.4355 37.4414C33.2689 37.3945 33.1165 37.3385 32.9785 37.2734V36.3906C33.2103 36.4922 33.4694 36.5846 33.7559 36.668C34.0423 36.7487 34.334 36.7891 34.6309 36.7891C34.873 36.7891 35.0736 36.7578 35.2324 36.6953C35.3939 36.6302 35.5137 36.5391 35.5918 36.4219C35.6699 36.3021 35.709 36.1628 35.709 36.0039C35.709 35.8346 35.6634 35.6914 35.5723 35.5742C35.4811 35.457 35.3431 35.3503 35.1582 35.2539C34.9759 35.1549 34.7467 35.0495 34.4707 34.9375C34.2832 34.862 34.1035 34.776 33.9316 34.6797C33.7624 34.5833 33.6113 34.4701 33.4785 34.3398C33.3457 34.2096 33.2402 34.056 33.1621 33.8789C33.0866 33.6992 33.0488 33.4883 33.0488 33.2461C33.0488 32.9232 33.1257 32.6471 33.2793 32.418C33.4355 32.1888 33.6543 32.013 33.9355 31.8906C34.2194 31.7682 34.5501 31.707 34.9277 31.707C35.2272 31.707 35.5085 31.7383 35.7715 31.8008C36.0371 31.8633 36.2975 31.9518 36.5527 32.0664L36.2559 32.8203C36.0215 32.724 35.7936 32.6471 35.5723 32.5898C35.3535 32.5326 35.1296 32.5039 34.9004 32.5039C34.7025 32.5039 34.5345 32.5339 34.3965 32.5938C34.2585 32.6536 34.153 32.7383 34.0801 32.8477C34.0098 32.9544 33.9746 33.082 33.9746 33.2305C33.9746 33.3971 34.015 33.5378 34.0957 33.6523C34.179 33.7643 34.3066 33.8672 34.4785 33.9609C34.653 34.0547 34.877 34.1589 35.1504 34.2734C35.4655 34.4036 35.7324 34.5404 35.9512 34.6836C36.1725 34.8268 36.3418 34.9987 36.459 35.1992C36.5762 35.3971 36.6348 35.6458 36.6348 35.9453ZM41.4121 33.1758V37.5H40.6895L40.5645 36.918H40.5137C40.4225 37.0664 40.3066 37.1901 40.166 37.2891C40.0254 37.3854 39.8691 37.457 39.6973 37.5039C39.5254 37.5534 39.3444 37.5781 39.1543 37.5781C38.8288 37.5781 38.5501 37.5234 38.3184 37.4141C38.0892 37.3021 37.9134 37.1302 37.791 36.8984C37.6686 36.6667 37.6074 36.3672 37.6074 36V33.1758H38.5293V35.8281C38.5293 36.1641 38.597 36.4154 38.7324 36.582C38.8704 36.7487 39.084 36.832 39.373 36.832C39.6517 36.832 39.873 36.7747 40.0371 36.6602C40.2012 36.5456 40.3171 36.3763 40.3848 36.1523C40.4551 35.9284 40.4902 35.6536 40.4902 35.3281V33.1758H41.4121ZM44.9473 33.0938C45.4603 33.0938 45.8717 33.2812 46.1816 33.6562C46.4941 34.0312 46.6504 34.5885 46.6504 35.3281C46.6504 35.8177 46.5775 36.2305 46.4316 36.5664C46.2884 36.8997 46.0866 37.1523 45.8262 37.3242C45.5684 37.4935 45.2676 37.5781 44.9238 37.5781C44.7051 37.5781 44.515 37.5495 44.3535 37.4922C44.1921 37.4349 44.054 37.3607 43.9395 37.2695C43.8249 37.1758 43.7285 37.0742 43.6504 36.9648H43.5957C43.6087 37.069 43.6204 37.1849 43.6309 37.3125C43.6439 37.4375 43.6504 37.5521 43.6504 37.6562V39.418H42.7285V33.1758H43.4785L43.6074 33.7734H43.6504C43.7311 33.651 43.8288 33.5378 43.9434 33.4336C44.0605 33.3294 44.2012 33.2474 44.3652 33.1875C44.5319 33.125 44.7259 33.0938 44.9473 33.0938ZM44.7012 33.8438C44.4486 33.8438 44.2454 33.8945 44.0918 33.9961C43.9408 34.0951 43.8301 34.2448 43.7598 34.4453C43.6921 34.6458 43.6556 34.8971 43.6504 35.1992V35.3281C43.6504 35.6484 43.6829 35.9206 43.748 36.1445C43.8158 36.3659 43.9264 36.5352 44.0801 36.6523C44.2363 36.7669 44.4473 36.8242 44.7129 36.8242C44.9368 36.8242 45.1217 36.763 45.2676 36.6406C45.416 36.5182 45.5267 36.3438 45.5996 36.1172C45.6725 35.8906 45.709 35.6237 45.709 35.3164C45.709 34.8503 45.6257 34.4883 45.459 34.2305C45.2949 33.9727 45.0423 33.8438 44.7012 33.8438ZM49.9316 33.0938C50.4447 33.0938 50.8561 33.2812 51.166 33.6562C51.4785 34.0312 51.6348 34.5885 51.6348 35.3281C51.6348 35.8177 51.5618 36.2305 51.416 36.5664C51.2728 36.8997 51.071 37.1523 50.8105 37.3242C50.5527 37.4935 50.252 37.5781 49.9082 37.5781C49.6895 37.5781 49.4993 37.5495 49.3379 37.4922C49.1764 37.4349 49.0384 37.3607 48.9238 37.2695C48.8092 37.1758 48.7129 37.0742 48.6348 36.9648H48.5801C48.5931 37.069 48.6048 37.1849 48.6152 37.3125C48.6283 37.4375 48.6348 37.5521 48.6348 37.6562V39.418H47.7129V33.1758H48.4629L48.5918 33.7734H48.6348C48.7155 33.651 48.8132 33.5378 48.9277 33.4336C49.0449 33.3294 49.1855 33.2474 49.3496 33.1875C49.5163 33.125 49.7103 33.0938 49.9316 33.0938ZM49.6855 33.8438C49.4329 33.8438 49.2298 33.8945 49.0762 33.9961C48.9251 34.0951 48.8145 34.2448 48.7441 34.4453C48.6764 34.6458 48.64 34.8971 48.6348 35.1992V35.3281C48.6348 35.6484 48.6673 35.9206 48.7324 36.1445C48.8001 36.3659 48.9108 36.5352 49.0645 36.6523C49.2207 36.7669 49.4316 36.8242 49.6973 36.8242C49.9212 36.8242 50.1061 36.763 50.252 36.6406C50.4004 36.5182 50.5111 36.3438 50.584 36.1172C50.6569 35.8906 50.6934 35.6237 50.6934 35.3164C50.6934 34.8503 50.61 34.4883 50.4434 34.2305C50.2793 33.9727 50.0267 33.8438 49.6855 33.8438ZM53.6191 37.5H52.6973V31.4219H53.6191V37.5ZM54.2793 33.1758H55.2793L56.166 35.6445C56.2051 35.7565 56.2402 35.8672 56.2715 35.9766C56.3053 36.0833 56.334 36.1888 56.3574 36.293C56.3835 36.3971 56.4043 36.5013 56.4199 36.6055H56.4434C56.4694 36.4701 56.5059 36.319 56.5527 36.1523C56.6022 35.9831 56.6569 35.8138 56.7168 35.6445L57.5684 33.1758H58.5566L56.7012 38.0938C56.5944 38.375 56.4629 38.6146 56.3066 38.8125C56.153 39.013 55.9707 39.1641 55.7598 39.2656C55.5488 39.3698 55.3079 39.4219 55.0371 39.4219C54.9069 39.4219 54.7936 39.4141 54.6973 39.3984C54.6009 39.3854 54.5189 39.3711 54.4512 39.3555V38.6211C54.5059 38.6341 54.5749 38.6458 54.6582 38.6562C54.7415 38.6667 54.8275 38.6719 54.916 38.6719C55.0801 38.6719 55.222 38.6393 55.3418 38.5742C55.4616 38.5091 55.5632 38.4167 55.6465 38.2969C55.7298 38.1797 55.7988 38.0456 55.8535 37.8945L56.0059 37.4883L54.2793 33.1758ZM63.8184 32.5039C63.5449 32.5039 63.3001 32.5534 63.084 32.6523C62.8704 32.7513 62.6895 32.8945 62.541 33.082C62.3926 33.2669 62.2793 33.4922 62.2012 33.7578C62.123 34.0208 62.084 34.3177 62.084 34.6484C62.084 35.0911 62.1465 35.4727 62.2715 35.793C62.3965 36.1107 62.5866 36.3555 62.8418 36.5273C63.097 36.6966 63.4199 36.7812 63.8105 36.7812C64.0527 36.7812 64.2884 36.7578 64.5176 36.7109C64.7467 36.6641 64.9837 36.6003 65.2285 36.5195V37.3164C64.9967 37.4076 64.7624 37.474 64.5254 37.5156C64.2884 37.5573 64.015 37.5781 63.7051 37.5781C63.1217 37.5781 62.6374 37.457 62.252 37.2148C61.8691 36.9727 61.5827 36.6315 61.3926 36.1914C61.2051 35.7513 61.1113 35.2357 61.1113 34.6445C61.1113 34.2122 61.1712 33.8164 61.291 33.457C61.4108 33.0977 61.5853 32.7878 61.8145 32.5273C62.0436 32.2643 62.3262 32.0625 62.6621 31.9219C63.0007 31.7786 63.3874 31.707 63.8223 31.707C64.1087 31.707 64.39 31.7396 64.666 31.8047C64.9447 31.8672 65.2025 31.957 65.4395 32.0742L65.1113 32.8477C64.9134 32.7539 64.7064 32.6732 64.4902 32.6055C64.2741 32.5378 64.0501 32.5039 63.8184 32.5039ZM67.2793 31.4219V32.9492C67.2793 33.1081 67.2741 33.263 67.2637 33.4141C67.2559 33.5651 67.2467 33.6823 67.2363 33.7656H67.2871C67.3783 33.6146 67.4902 33.4909 67.623 33.3945C67.7559 33.2956 67.9043 33.2214 68.0684 33.1719C68.235 33.1224 68.4121 33.0977 68.5996 33.0977C68.9303 33.0977 69.2116 33.1536 69.4434 33.2656C69.6751 33.375 69.8522 33.5456 69.9746 33.7773C70.0996 34.0091 70.1621 34.3099 70.1621 34.6797V37.5H69.2441V34.8516C69.2441 34.5156 69.1751 34.2643 69.0371 34.0977C68.8991 33.9284 68.6855 33.8438 68.3965 33.8438C68.1178 33.8438 67.8965 33.9023 67.7324 34.0195C67.571 34.1341 67.4551 34.3047 67.3848 34.5312C67.3145 34.7552 67.2793 35.0286 67.2793 35.3516V37.5H66.3613V31.4219H67.2793ZM73.1426 33.0938C73.6895 33.0938 74.1022 33.2148 74.3809 33.457C74.6621 33.6992 74.8027 34.0768 74.8027 34.5898V37.5H74.1504L73.9746 36.8867H73.9434C73.821 37.043 73.6947 37.1719 73.5645 37.2734C73.4342 37.375 73.2832 37.4505 73.1113 37.5C72.9421 37.5521 72.735 37.5781 72.4902 37.5781C72.2324 37.5781 72.002 37.5312 71.7988 37.4375C71.5957 37.3411 71.4355 37.1953 71.3184 37C71.2012 36.8047 71.1426 36.5573 71.1426 36.2578C71.1426 35.8125 71.3079 35.4779 71.6387 35.2539C71.972 35.0299 72.4746 34.9062 73.1465 34.8828L73.8965 34.8555V34.6289C73.8965 34.3294 73.8262 34.1159 73.6855 33.9883C73.5475 33.8607 73.3522 33.7969 73.0996 33.7969C72.8835 33.7969 72.6738 33.8281 72.4707 33.8906C72.2676 33.9531 72.0697 34.0299 71.877 34.1211L71.5801 33.4727C71.791 33.3607 72.0306 33.2695 72.2988 33.1992C72.5697 33.1289 72.8509 33.0938 73.1426 33.0938ZM73.8926 35.4336L73.334 35.4531C72.8757 35.4688 72.554 35.5469 72.3691 35.6875C72.1842 35.8281 72.0918 36.0208 72.0918 36.2656C72.0918 36.4792 72.1556 36.6354 72.2832 36.7344C72.4108 36.8307 72.5788 36.8789 72.7871 36.8789C73.1048 36.8789 73.3678 36.7891 73.5762 36.6094C73.7871 36.4271 73.8926 36.1602 73.8926 35.8086V35.4336ZM77.0059 33.1758V37.5H76.0879V33.1758H77.0059ZM76.5527 31.5195C76.6934 31.5195 76.8145 31.5573 76.916 31.6328C77.0202 31.7083 77.0723 31.8385 77.0723 32.0234C77.0723 32.2057 77.0202 32.3359 76.916 32.4141C76.8145 32.4896 76.6934 32.5273 76.5527 32.5273C76.4069 32.5273 76.2832 32.4896 76.1816 32.4141C76.0827 32.3359 76.0332 32.2057 76.0332 32.0234C76.0332 31.8385 76.0827 31.7083 76.1816 31.6328C76.2832 31.5573 76.4069 31.5195 76.5527 31.5195ZM80.5762 33.0938C81.0632 33.0938 81.4421 33.2201 81.7129 33.4727C81.9863 33.7227 82.123 34.125 82.123 34.6797V37.5H81.2051V34.8516C81.2051 34.5156 81.1361 34.2643 80.998 34.0977C80.86 33.9284 80.6465 33.8438 80.3574 33.8438C79.9382 33.8438 79.6465 33.9727 79.4824 34.2305C79.321 34.4883 79.2402 34.862 79.2402 35.3516V37.5H78.3223V33.1758H79.0371L79.166 33.7617H79.2168C79.3105 33.6107 79.4264 33.487 79.5645 33.3906C79.7051 33.2917 79.8613 33.2174 80.0332 33.168C80.2077 33.1185 80.3887 33.0938 80.5762 33.0938Z" fill="#4B0082"/>
</svg>
