<svg width="48" height="48" viewBox="0 0 48 48" fill="none" xmlns="http://www.w3.org/2000/svg">
<path d="M19.0418 19.2019C19.0784 19.2019 19.1151 19.2018 19.1517 19.2017C19.2307 19.2016 19.3098 19.2016 19.3888 19.2016C19.5064 19.2017 19.624 19.2016 19.7415 19.2015C19.9638 19.2013 20.186 19.2012 20.4083 19.2013C20.58 19.2013 20.7517 19.2013 20.9233 19.2012C20.9481 19.2012 20.9728 19.2012 20.9975 19.2012C21.0348 19.2012 21.0721 19.2012 21.1093 19.2012C21.4555 19.201 21.8017 19.201 22.1478 19.201C22.1674 19.201 22.1674 19.201 22.1873 19.201C22.2533 19.201 22.3194 19.2011 22.3854 19.2011C22.3985 19.2011 22.4116 19.2011 22.4251 19.2011C22.4517 19.2011 22.4782 19.2011 22.5047 19.2011C22.9172 19.2012 23.3298 19.2011 23.7424 19.2008C24.2066 19.2005 24.6709 19.2003 25.1351 19.2004C25.1847 19.2004 25.2343 19.2004 25.2838 19.2004C25.296 19.2004 25.3082 19.2004 25.3208 19.2004C25.5045 19.2004 25.6881 19.2003 25.8718 19.2002C26.0808 19.2 26.2898 19.2 26.4988 19.2001C26.6155 19.2002 26.7323 19.2002 26.849 19.2C26.9365 19.1999 27.024 19.2 27.1115 19.2002C27.1467 19.2002 27.1818 19.2002 27.217 19.2C27.5003 19.1992 27.7791 19.2208 28.0559 19.2845C28.0699 19.2876 28.0838 19.2908 28.0982 19.294C28.7621 19.4477 29.378 19.7695 29.8753 20.2358C29.9079 20.266 29.9411 20.2949 29.9752 20.3234C30.1972 20.5169 30.3821 20.7651 30.538 21.0133C30.5437 21.0224 30.5495 21.0314 30.5554 21.0408C30.643 21.1803 30.7197 21.3238 30.7902 21.4726C30.7951 21.483 30.8001 21.4933 30.8052 21.504C31.2754 22.4958 31.2406 23.5871 30.9089 24.6136C30.9023 24.6339 30.9023 24.6339 30.8956 24.6547C30.8323 24.8484 30.7554 25.0355 30.6715 25.221C30.6654 25.2346 30.6593 25.2482 30.653 25.2622C30.4355 25.7409 30.1504 26.1914 29.8036 26.5875C29.7866 26.6076 29.77 26.6281 29.7536 26.6487C29.6692 26.7546 29.5781 26.851 29.482 26.9463C29.4569 26.9711 29.432 26.9962 29.4071 27.0212C29.3089 27.1194 29.2078 27.2089 29.099 27.2953C29.0826 27.3091 29.0664 27.3231 29.0502 27.3372C28.9196 27.4509 28.7811 27.5518 28.6391 27.6509C28.6296 27.6575 28.6202 27.6641 28.6105 27.6709C28.4485 27.784 28.2781 27.8818 28.105 27.9768C28.0913 27.9843 28.0776 27.9919 28.0635 27.9996C27.4983 28.308 26.8818 28.51 26.2478 28.6176C26.237 28.6195 26.2261 28.6213 26.2149 28.6232C25.9101 28.6748 25.6091 28.6924 25.3001 28.6918C25.2635 28.6919 25.2269 28.6919 25.1902 28.692C25.1112 28.6921 25.0321 28.6922 24.9531 28.6921C24.8355 28.692 24.7179 28.6921 24.6004 28.6922C24.3781 28.6925 24.1559 28.6925 23.9336 28.6925C23.7619 28.6924 23.5903 28.6925 23.4186 28.6925C23.3938 28.6925 23.3691 28.6925 23.3444 28.6925C23.3071 28.6926 23.2698 28.6926 23.2326 28.6926C22.8864 28.6927 22.5402 28.6928 22.1941 28.6927C22.1745 28.6927 22.1745 28.6927 22.1546 28.6927C22.0886 28.6927 22.0225 28.6927 21.9565 28.6927C21.9434 28.6927 21.9303 28.6927 21.9168 28.6927C21.8903 28.6927 21.8637 28.6926 21.8372 28.6926C21.4247 28.6926 21.0121 28.6927 20.5995 28.693C20.1353 28.6933 19.671 28.6934 19.2068 28.6934C19.1572 28.6934 19.1076 28.6933 19.0581 28.6933C19.0398 28.6933 19.0398 28.6933 19.0211 28.6933C18.8374 28.6933 18.6538 28.6934 18.4701 28.6936C18.2611 28.6938 18.0521 28.6938 17.8431 28.6936C17.7264 28.6935 17.6096 28.6935 17.4929 28.6937C17.4054 28.6939 17.3179 28.6938 17.2304 28.6936C17.1952 28.6935 17.1601 28.6936 17.125 28.6937C16.8416 28.6946 16.5628 28.673 16.286 28.6093C16.2651 28.6045 16.2651 28.6045 16.2437 28.5997C15.5798 28.446 14.9639 28.1242 14.4666 27.658C14.434 27.6277 14.4008 27.5988 14.3667 27.5703C14.1447 27.3769 13.9598 27.1286 13.8039 26.8804C13.7982 26.8714 13.7925 26.8623 13.7866 26.853C13.6989 26.7135 13.6222 26.5699 13.5517 26.4211C13.5468 26.4108 13.5418 26.4004 13.5367 26.3897C13.0665 25.398 13.1013 24.3067 13.433 23.2802C13.4374 23.2666 13.4418 23.253 13.4463 23.239C13.5097 23.0454 13.5865 22.8583 13.6704 22.6727C13.6765 22.6591 13.6826 22.6455 13.6889 22.6315C13.9064 22.1528 14.1915 21.7023 14.5383 21.3062C14.5553 21.2861 14.5719 21.2657 14.5883 21.245C14.6727 21.1391 14.7638 21.0428 14.8599 20.9475C14.885 20.9226 14.9099 20.8976 14.9348 20.8725C15.033 20.7744 15.1341 20.6848 15.2429 20.5985C15.2593 20.5846 15.2755 20.5707 15.2917 20.5566C15.4223 20.4428 15.5608 20.3419 15.7028 20.2429C15.7123 20.2363 15.7217 20.2296 15.7314 20.2228C15.8934 20.1098 16.0638 20.012 16.2369 19.9169C16.2506 19.9094 16.2643 19.9019 16.2784 19.8941C16.8436 19.5858 17.4601 19.3837 18.0941 19.2761C18.1049 19.2743 18.1158 19.2724 18.127 19.2705C18.4318 19.219 18.7328 19.2014 19.0418 19.2019Z" fill="url(#paint0_linear_2151_4998)"/>
<path d="M23.4914 20.3912C23.9839 20.3906 24.4764 20.39 24.9689 20.3897C25.0271 20.3897 25.0854 20.3897 25.1437 20.3896C25.1553 20.3896 25.1669 20.3896 25.1788 20.3896C25.3661 20.3895 25.5535 20.3892 25.7408 20.389C25.9333 20.3887 26.1257 20.3885 26.3182 20.3885C26.4368 20.3884 26.5554 20.3883 26.674 20.388C26.7652 20.3879 26.8564 20.3879 26.9477 20.3879C26.9849 20.3879 27.0221 20.3878 27.0593 20.3877C27.8767 20.3853 28.6006 20.6422 29.1881 21.2209C29.7268 21.7645 29.966 22.4809 29.9641 23.2321C29.9606 23.734 29.8067 24.2315 29.6035 24.6879C29.5974 24.7015 29.5914 24.7151 29.5852 24.7291C29.4049 25.1308 29.1682 25.5327 28.8641 25.8539C28.8371 25.8825 28.8115 25.9117 28.7858 25.9416C28.7192 26.0179 28.6478 26.0895 28.5761 26.1611C28.5631 26.1743 28.5501 26.1875 28.5367 26.2011C28.447 26.2909 28.3531 26.3724 28.2535 26.451C28.2377 26.4637 28.222 26.4764 28.2063 26.4891C27.9888 26.6594 27.7565 26.8118 27.5117 26.9399C27.4974 26.9474 27.4974 26.9474 27.4828 26.955C27.414 26.9908 27.3444 27.025 27.2743 27.0584C27.2645 27.0631 27.2547 27.0678 27.2446 27.0727C26.8928 27.2401 26.5277 27.351 26.1469 27.4288C26.1341 27.4315 26.1213 27.4342 26.1081 27.437C25.6608 27.5292 25.1933 27.507 24.7393 27.5059C24.6456 27.5057 24.5519 27.5057 24.4583 27.5057C24.3015 27.5056 24.1447 27.5054 23.988 27.5051C23.8268 27.5049 23.6656 27.5047 23.5043 27.5045C23.4893 27.5045 23.4893 27.5045 23.4741 27.5045C23.4239 27.5045 23.3737 27.5044 23.3236 27.5044C22.9097 27.5041 22.4959 27.5036 22.082 27.5029C22.0901 27.4219 22.1008 27.3426 22.1169 27.2627C22.1189 27.2526 22.1209 27.2426 22.123 27.2322C22.1298 27.1983 22.1367 27.1644 22.1436 27.1306C22.1486 27.1053 22.1537 27.08 22.1588 27.0548C22.1701 26.9986 22.1814 26.9424 22.1927 26.8862C22.2119 26.7915 22.231 26.6967 22.25 26.6019C22.272 26.4923 22.2941 26.3828 22.3161 26.2732C22.384 25.9358 22.4517 25.5982 22.5193 25.2607C22.5235 25.2399 22.5235 25.2399 22.5277 25.2186C22.5566 25.0745 22.5855 24.9303 22.6143 24.7861C22.6532 24.5922 22.692 24.3983 22.7308 24.2045C22.7338 24.1895 22.7368 24.1746 22.7399 24.1592C22.7521 24.0985 22.7642 24.0378 22.7764 23.9771C22.7978 23.87 22.8193 23.7629 22.8407 23.6557C22.9067 23.3266 22.9726 22.9975 23.0386 22.6683C23.091 22.4066 23.1434 22.1449 23.1959 21.8831C23.2279 21.7231 23.26 21.563 23.2921 21.4029C23.3138 21.2942 23.3356 21.1856 23.3574 21.0769C23.3699 21.0143 23.3824 20.9518 23.395 20.8892C23.4064 20.832 23.4179 20.7749 23.4293 20.7177C23.4335 20.697 23.4376 20.6763 23.4418 20.6556C23.4474 20.6276 23.453 20.5995 23.4586 20.5714C23.4618 20.5558 23.4649 20.5402 23.4681 20.5242C23.4766 20.4799 23.4842 20.4357 23.4914 20.3912Z" fill="url(#paint1_linear_2151_4998)"/>
<path d="M19.6029 20.388C19.6966 20.3882 19.7903 20.3882 19.884 20.3883C20.0407 20.3884 20.1975 20.3885 20.3542 20.3888C20.5155 20.3891 20.6767 20.3893 20.8379 20.3894C20.8529 20.3894 20.8529 20.3894 20.8682 20.3894C20.9183 20.3895 20.9685 20.3895 21.0186 20.3895C21.4325 20.3899 21.8463 20.3904 22.2602 20.391C22.2579 20.4122 22.2556 20.4335 22.2533 20.4547C22.2514 20.4724 22.2514 20.4724 22.2494 20.4905C22.2443 20.5332 22.2367 20.5752 22.2282 20.6174C22.225 20.6335 22.2217 20.6497 22.2184 20.6663C22.2151 20.6827 22.2117 20.6991 22.2083 20.7161C22.2049 20.7329 22.2016 20.7497 22.1981 20.767C22.1731 20.8909 22.1731 20.8909 22.1563 20.9244C22.1389 20.9244 22.1214 20.9245 22.1033 20.9245C21.6871 20.9254 21.2708 20.9264 20.8546 20.9278C20.8032 20.928 20.7519 20.9281 20.7005 20.9283C20.6903 20.9283 20.6801 20.9284 20.6696 20.9284C20.5045 20.9289 20.3395 20.9293 20.1745 20.9296C20.0049 20.9299 19.8353 20.9304 19.6657 20.9311C19.5705 20.9314 19.4754 20.9317 19.3802 20.9318C19.2905 20.9319 19.2007 20.9322 19.111 20.9326C19.0782 20.9328 19.0455 20.9328 19.0127 20.9328C18.7644 20.9326 18.5291 20.9534 18.2899 21.0244C18.2768 21.0283 18.2637 21.0321 18.2501 21.0361C18.1281 21.0731 18.0135 21.1211 17.8987 21.1763C17.8756 21.1873 17.8756 21.1873 17.8521 21.1985C17.76 21.2425 17.6681 21.2869 17.5763 21.3314C17.4995 21.3688 17.4225 21.4056 17.3453 21.4421C17.1873 21.5168 17.0304 21.5938 16.8738 21.6715C16.8491 21.6838 16.8243 21.696 16.7994 21.7083C16.6641 21.775 16.5329 21.8437 16.4061 21.9256C16.3706 21.9467 16.3706 21.9467 16.341 21.9467C16.341 21.9565 16.341 21.9663 16.341 21.9763C16.3551 21.9711 16.3693 21.9659 16.3839 21.9605C16.9256 21.7614 17.4686 21.5702 18.0493 21.5302C18.0673 21.529 18.0853 21.5277 18.1038 21.5264C18.2901 21.5144 18.4759 21.5131 18.6626 21.5137C18.6998 21.5137 18.737 21.5137 18.7741 21.5137C18.8532 21.5137 18.9322 21.5137 19.0113 21.5139C19.1256 21.5142 19.2399 21.5142 19.3541 21.5143C19.5397 21.5143 19.7252 21.5145 19.9108 21.5148C20.0907 21.5151 20.2706 21.5153 20.4506 21.5154C20.4673 21.5154 20.4673 21.5154 20.4843 21.5154C20.5403 21.5155 20.5962 21.5155 20.6521 21.5156C21.114 21.5159 21.5758 21.5164 22.0377 21.517C22.0169 21.6619 21.9901 21.8053 21.9612 21.9488C21.9564 21.9724 21.9517 21.996 21.947 22.0197C21.9341 22.0841 21.9211 22.1485 21.9082 22.213C21.8942 22.2826 21.8803 22.3523 21.8663 22.422C21.8421 22.5426 21.818 22.6631 21.7938 22.7837C21.7587 22.9581 21.7238 23.1325 21.6888 23.3069C21.6321 23.5901 21.5753 23.8732 21.5185 24.1564C21.4634 24.4311 21.4083 24.7059 21.3532 24.9806C21.3498 24.9975 21.3464 25.0145 21.3429 25.0319C21.3059 25.2168 21.2688 25.4017 21.2317 25.5866C21.2285 25.6028 21.2252 25.619 21.2219 25.6358C21.2089 25.7007 21.1959 25.7656 21.1828 25.8305C21.1447 26.0206 21.1066 26.2107 21.0685 26.4008C21.0446 26.5199 21.0207 26.639 20.9968 26.7582C20.983 26.8269 20.9692 26.8957 20.9554 26.9644C20.9428 27.0273 20.9302 27.0903 20.9176 27.1532C20.913 27.176 20.9085 27.1987 20.9039 27.2215C20.8977 27.2524 20.8915 27.2834 20.8853 27.3143C20.8818 27.3315 20.8784 27.3487 20.8748 27.3664C20.8661 27.4117 20.8582 27.4571 20.8509 27.5027C20.3514 27.5044 19.852 27.5057 19.3526 27.5065C19.2934 27.5066 19.2342 27.5067 19.175 27.5068C19.1573 27.5068 19.1573 27.5068 19.1393 27.5068C18.9495 27.5071 18.7596 27.5077 18.5697 27.5084C18.3744 27.5091 18.1791 27.5095 17.9837 27.5097C17.8636 27.5098 17.7434 27.5101 17.6232 27.5107C17.5404 27.5111 17.4576 27.5112 17.3747 27.5111C17.3272 27.5111 17.2797 27.5112 17.2322 27.5115C16.7646 27.5149 16.3312 27.4244 15.9107 27.2212C15.9011 27.2166 15.8915 27.212 15.8816 27.2072C15.3734 26.9602 14.9553 26.5337 14.6943 26.0359C14.6889 26.0258 14.6836 26.0157 14.6781 26.0053C14.5055 25.6741 14.3827 25.2975 14.3792 24.9218C14.379 24.9091 14.3789 24.8963 14.3787 24.8831C14.3741 24.3751 14.3741 24.3751 14.4327 24.1468C14.4429 24.1067 14.4518 24.0664 14.4606 24.026C14.5879 23.4629 14.8323 22.9058 15.169 22.4356C15.1771 22.4243 15.1851 22.413 15.1935 22.4013C15.283 22.2763 15.3722 22.1519 15.4781 22.0401C15.5051 22.0114 15.5307 21.9822 15.5564 21.9524C15.6231 21.876 15.6944 21.8045 15.7661 21.7328C15.7791 21.7196 15.7921 21.7064 15.8056 21.6928C15.8953 21.6031 15.9892 21.5216 16.0888 21.443C16.1045 21.4303 16.1202 21.4175 16.1359 21.4048C16.5278 21.098 16.9703 20.8429 17.4388 20.6725C17.4496 20.6686 17.4604 20.6646 17.4716 20.6605C18.172 20.4062 18.8672 20.3863 19.6029 20.388Z" fill="#F3ECF8"/>
<path d="M15.3615 20.1006C15.3205 20.1324 15.2789 20.1596 15.2338 20.1853C15.057 20.2872 14.8874 20.3939 14.7236 20.5154C14.715 20.5217 14.7065 20.528 14.6977 20.5345C14.3343 20.8027 13.9928 21.1225 13.7148 21.4785C13.6981 21.4995 13.6814 21.5205 13.6648 21.5414C13.575 21.6551 13.4884 21.7674 13.4143 21.892C13.3805 21.9324 13.3665 21.932 13.3142 21.9378C13.2668 21.9368 13.2197 21.9328 13.1724 21.9288C13.1579 21.9277 13.1435 21.9265 13.1286 21.9253C13.08 21.9214 13.0313 21.9174 12.9827 21.9133C12.9476 21.9105 12.9124 21.9076 12.8773 21.9048C12.8008 21.8986 12.7243 21.8924 12.6478 21.8861C12.5341 21.8767 12.4203 21.8674 12.3066 21.8582C12.0916 21.8407 11.8767 21.8231 11.6618 21.8055C11.4959 21.7919 11.33 21.7783 11.1641 21.7647C11.1403 21.7628 11.1164 21.7608 11.0926 21.7589C11.0567 21.756 11.0208 21.753 10.985 21.7501C10.6513 21.7228 10.3176 21.6955 9.98389 21.6681C9.9713 21.6671 9.95872 21.6661 9.94576 21.665C9.84356 21.6566 9.74136 21.6482 9.63917 21.6399C9.2403 21.6071 8.84142 21.5745 8.44253 21.542C7.99467 21.5055 7.54682 21.4689 7.09897 21.4322C7.05127 21.4282 7.00357 21.4243 6.95587 21.4204C6.93825 21.419 6.93825 21.419 6.92027 21.4175C6.7426 21.4029 6.56492 21.3884 6.38723 21.374C6.18532 21.3575 5.98341 21.341 5.78152 21.3243C5.66841 21.315 5.55529 21.3058 5.44217 21.2966C5.35793 21.2898 5.2737 21.2828 5.18948 21.2758C5.15523 21.273 5.12098 21.2702 5.08673 21.2675C5.04049 21.2638 4.99426 21.2599 4.94804 21.256C4.93446 21.2549 4.92088 21.2539 4.90689 21.2528C4.8757 21.2501 4.84465 21.2459 4.81366 21.2414C4.80877 21.2316 4.80387 21.2219 4.79883 21.2118C5.47323 21.1399 6.14764 21.068 6.82205 20.9961C6.83222 20.9951 6.8424 20.994 6.85289 20.9929C7.07475 20.9692 7.29661 20.9456 7.51848 20.9219C7.62747 20.9103 7.73646 20.8987 7.84545 20.8871C7.85629 20.8859 7.86713 20.8848 7.8783 20.8836C8.17993 20.8514 8.48156 20.8193 8.7832 20.7871C8.85672 20.7793 8.93024 20.7714 9.00376 20.7636C9.0352 20.7602 9.06664 20.7569 9.09807 20.7535C9.119 20.7513 9.13993 20.7491 9.16085 20.7469C9.27576 20.7346 9.39066 20.7224 9.50556 20.7101C9.63064 20.6968 9.75572 20.6834 9.8808 20.6701C9.89109 20.669 9.90138 20.6679 9.91197 20.6668C10.2015 20.6359 10.4909 20.6051 10.7804 20.5743C10.9639 20.5547 11.1473 20.5352 11.3308 20.5156C11.361 20.5124 11.3912 20.5092 11.4214 20.506C11.9599 20.4486 12.4985 20.3911 13.0371 20.3334C13.161 20.3201 13.285 20.3069 13.4089 20.2936C13.4259 20.2918 13.443 20.29 13.4605 20.2881C13.5446 20.2791 13.6288 20.2701 13.7129 20.2611C13.8889 20.2423 14.0648 20.2235 14.2408 20.2045C14.358 20.1919 14.4752 20.1794 14.5924 20.1669C14.6591 20.1598 14.7257 20.1527 14.7923 20.1455C14.8528 20.1389 14.9133 20.1325 14.9738 20.126C14.9955 20.1237 15.0172 20.1214 15.0389 20.119C15.147 20.1073 15.2527 20.0978 15.3615 20.1006Z" fill="url(#paint2_linear_2151_4998)"/>
<path d="M12.8247 23.0876C12.8149 23.1424 12.8003 23.1935 12.7824 23.2461C12.6439 23.6598 12.55 24.0732 12.528 24.51C12.4094 24.5013 12.2936 24.4845 12.1766 24.4636C12.1583 24.4603 12.14 24.4571 12.1211 24.4538C12.0707 24.4449 12.0203 24.4359 11.9699 24.427C11.9152 24.4172 11.8605 24.4076 11.8058 24.398C11.7109 24.3812 11.616 24.3644 11.5212 24.3475C11.3835 24.3231 11.2459 24.2988 11.1083 24.2744C10.8961 24.2369 10.6839 24.1994 10.4717 24.1618C10.1156 24.0987 9.75944 24.0358 9.40327 23.9729C9.37485 23.9679 9.34644 23.9629 9.31802 23.9579C9.20626 23.9382 9.09451 23.9184 8.98276 23.8987C8.70525 23.8497 8.42775 23.8007 8.15025 23.7517C8.11469 23.7454 8.07914 23.7391 8.04358 23.7328C7.91642 23.7104 7.78927 23.6879 7.66211 23.6654C7.66211 23.6557 7.66211 23.6459 7.66211 23.6358C8.30051 23.5659 8.93891 23.496 9.57733 23.4263C9.6527 23.4181 9.72808 23.4098 9.80345 23.4016C9.82596 23.3991 9.82595 23.3991 9.84892 23.3966C10.0919 23.3701 10.3348 23.3435 10.5778 23.3169C10.8271 23.2896 11.0764 23.2623 11.3257 23.2351C11.4795 23.2183 11.6333 23.2015 11.7871 23.1846C11.8926 23.173 11.9981 23.1615 12.1036 23.15C12.1645 23.1434 12.2253 23.1368 12.2862 23.13C12.3419 23.1239 12.3977 23.1178 12.4535 23.1118C12.4831 23.1086 12.5127 23.1053 12.5424 23.102C12.6372 23.0918 12.7294 23.0853 12.8247 23.0876Z" fill="url(#paint3_linear_2151_4998)"/>
<path d="M28.0751 25.9175C27.961 25.9998 27.8376 26.0624 27.7126 26.1259C27.6907 26.137 27.6688 26.1482 27.647 26.1594C27.5821 26.1925 27.5171 26.2254 27.452 26.2583C27.4427 26.263 27.4334 26.2677 27.4238 26.2726C27.2071 26.3823 26.9892 26.4895 26.7694 26.593C26.7222 26.6153 26.6751 26.6378 26.628 26.6604C26.2732 26.829 25.9062 26.9577 25.5091 26.9564C25.4877 26.9564 25.4877 26.9564 25.4658 26.9565C25.4183 26.9565 25.3707 26.9564 25.3232 26.9563C25.2889 26.9563 25.2547 26.9563 25.2205 26.9563C25.1278 26.9563 25.0351 26.9562 24.9425 26.9561C24.8455 26.956 24.7486 26.956 24.6516 26.956C24.489 26.956 24.3264 26.9559 24.1637 26.9558C23.9963 26.9556 23.8288 26.9555 23.6614 26.9555C23.6459 26.9554 23.6459 26.9554 23.6301 26.9554C23.5782 26.9554 23.5264 26.9554 23.4745 26.9554C23.0449 26.9552 22.6152 26.955 22.1855 26.9546C22.1903 26.9237 22.195 26.8927 22.1998 26.8618C22.2024 26.8446 22.205 26.8273 22.2078 26.8096C22.2154 26.7606 22.2241 26.7119 22.2338 26.6632C22.237 26.6473 22.2402 26.6313 22.2435 26.6149C22.2467 26.599 22.2499 26.583 22.2532 26.5666C22.2565 26.5501 22.2598 26.5335 22.2632 26.5165C22.2663 26.5008 22.2695 26.485 22.2728 26.4688C22.2756 26.4546 22.2784 26.4405 22.2814 26.4259C22.2894 26.3916 22.2894 26.3916 22.3042 26.362C22.3124 26.362 22.3205 26.362 22.3288 26.362C22.8123 26.3611 23.2957 26.36 23.7791 26.3586C23.8373 26.3584 23.8956 26.3583 23.9539 26.3581C23.9713 26.3581 23.9713 26.3581 23.989 26.358C24.1759 26.3575 24.3628 26.3571 24.5497 26.3568C24.742 26.3565 24.9343 26.356 25.1266 26.3554C25.2449 26.355 25.3631 26.3547 25.4814 26.3546C25.5727 26.3545 25.664 26.3542 25.7553 26.3538C25.7924 26.3537 25.8294 26.3536 25.8664 26.3536C26.2153 26.3538 26.564 26.331 26.905 26.2537C26.9257 26.2491 26.9464 26.2446 26.9671 26.24C27.1118 26.2078 27.2535 26.1692 27.3935 26.1202C27.439 26.1043 27.485 26.0898 27.5308 26.0749C27.6418 26.0378 27.7516 25.9977 27.8613 25.9572C27.8747 25.9523 27.8881 25.9474 27.9019 25.9423C27.9138 25.9379 27.9258 25.9335 27.9381 25.9289C28.0224 25.9 28.0224 25.9 28.0751 25.9175Z" fill="#F3ECF8"/>
<path d="M12.662 25.7248C12.6688 25.743 12.6756 25.7613 12.6826 25.7801C12.8733 26.3053 12.8733 26.3053 13.1039 26.8138C13.1219 26.8508 13.1219 26.8508 13.1219 26.8804C13.0491 26.8713 12.9808 26.857 12.9099 26.8374C12.8995 26.8345 12.8891 26.8317 12.8784 26.8287C12.8438 26.8192 12.8092 26.8096 12.7746 26.7999C12.7496 26.793 12.7247 26.7861 12.6997 26.7792C12.6318 26.7605 12.5639 26.7416 12.496 26.7228C12.4243 26.7029 12.3526 26.6831 12.2808 26.6632C12.1592 26.6296 12.0377 26.596 11.9161 26.5623C11.7276 26.51 11.539 26.458 11.3504 26.4059C11.2883 26.3888 11.2263 26.3716 11.1642 26.3545C11.149 26.3503 11.1339 26.3461 11.1183 26.3418C10.6784 26.2204 10.2385 26.0988 9.79883 25.9767C9.79883 25.9669 9.79883 25.9571 9.79883 25.947C10.1437 25.9179 10.4885 25.889 10.8333 25.8601C10.9935 25.8467 11.1536 25.8332 11.3137 25.8197C11.4533 25.808 11.593 25.7962 11.7326 25.7846C11.8065 25.7784 11.8804 25.7722 11.9542 25.7659C12.0239 25.76 12.0936 25.7542 12.1632 25.7484C12.1887 25.7463 12.2141 25.7442 12.2396 25.742C12.3809 25.7299 12.5201 25.7217 12.662 25.7248Z" fill="url(#paint4_linear_2151_4998)"/>
<path fill-rule="evenodd" clip-rule="evenodd" d="M6.17775 9.79136C6.90496 9.79136 7.60655 9.36041 7.98983 8.74375L24.63 8.74375L24.8783 7.34693L8.23816 7.34693C8.07413 6.73027 7.52577 6.29932 6.79856 6.29932C5.81914 6.29932 4.88619 7.08104 4.71476 8.04534C4.54333 9.00964 5.19833 9.79136 6.17775 9.79136ZM6.364 8.74375C6.75576 8.74375 7.12895 8.43106 7.19752 8.04534C7.26609 7.65962 7.00409 7.34693 6.61232 7.34693C6.22055 7.34693 5.84737 7.65962 5.7788 8.04534C5.71023 8.43106 5.97223 8.74375 6.364 8.74375Z" fill="#4B0082"/>
<path fill-rule="evenodd" clip-rule="evenodd" d="M40.8477 9.79136C40.0867 9.79136 39.5215 9.31935 39.3877 8.65645H27.3943L25.6867 18.2618H24.268L26.2239 7.25963H39.7137C40.107 6.68997 40.7761 6.29932 41.4685 6.29932C42.4479 6.29932 43.1029 7.08104 42.9315 8.04534C42.7601 9.00964 41.8271 9.79136 40.8477 9.79136ZM41.034 8.74375C40.6422 8.74375 40.3802 8.43106 40.4488 8.04534C40.5173 7.65962 40.8905 7.34693 41.2823 7.34693C41.674 7.34693 41.936 7.65962 41.8675 8.04534C41.7989 8.43106 41.4257 8.74375 41.034 8.74375Z" fill="#4B0082"/>
<path fill-rule="evenodd" clip-rule="evenodd" d="M22.7164 18.2618L24.1446 10.2279H10.9541C10.8204 9.56494 10.2552 9.09293 9.49417 9.09293C8.51475 9.09293 7.5818 9.87466 7.41036 10.839C7.23893 11.8033 7.89394 12.585 8.87336 12.585C9.56574 12.585 10.2349 12.1943 10.6282 11.6247H22.4776L21.2977 18.2618H22.7164ZM9.89312 10.839C9.82455 11.2247 9.45137 11.5374 9.0596 11.5374C8.66783 11.5374 8.40583 11.2247 8.4744 10.839C8.54298 10.4532 8.91616 10.1405 9.30792 10.1405C9.69969 10.1405 9.9617 10.4532 9.89312 10.839Z" fill="#4B0082"/>
<path fill-rule="evenodd" clip-rule="evenodd" d="M19.2498 29.7811H20.6685L19.6522 35.4975C20.2561 35.7565 20.603 36.3838 20.4728 37.1166C20.3013 38.0809 19.3684 38.8626 18.389 38.8626C17.4095 38.8626 16.7545 38.0809 16.926 37.1166C17.0502 36.4176 17.5746 35.8146 18.2267 35.5357L19.2498 29.7811ZM18.5752 37.815C18.967 37.815 19.3402 37.5023 19.4087 37.1166C19.4773 36.7309 19.2153 36.4182 18.8235 36.4182C18.4318 36.4182 18.0586 36.7309 17.99 37.1166C17.9214 37.5023 18.1834 37.815 18.5752 37.815Z" fill="#4B0082"/>
<path fill-rule="evenodd" clip-rule="evenodd" d="M19.8345 18.2618L20.7351 13.1961H13.3166C13.1526 12.5794 12.6042 12.1485 11.877 12.1485C10.8976 12.1485 9.96463 12.9302 9.7932 13.8945C9.62176 14.8588 10.2768 15.6405 11.2562 15.6405C11.9834 15.6405 12.685 15.2096 13.0683 14.5929H19.0681L18.4158 18.2618H19.8345ZM12.276 13.8945C12.2074 14.2802 11.8342 14.5929 11.4424 14.5929C11.0507 14.5929 10.7887 14.2802 10.8572 13.8945C10.9258 13.5088 11.299 13.1961 11.6908 13.1961C12.0825 13.1961 12.3445 13.5088 12.276 13.8945Z" fill="#4B0082"/>
<path fill-rule="evenodd" clip-rule="evenodd" d="M16.3679 29.7811H17.7867L17.2328 32.8968C17.8112 33.1662 18.1396 33.7816 18.0123 34.4976C17.8408 35.4619 16.9079 36.2436 15.9285 36.2436C14.949 36.2436 14.294 35.4619 14.4655 34.4976C14.5927 33.7816 15.1398 33.1663 15.814 32.8968L16.3679 29.7811ZM16.1147 35.196C16.5065 35.196 16.8796 34.8833 16.9482 34.4976C17.0168 34.1118 16.7548 33.7992 16.363 33.7992C15.9713 33.7992 15.5981 34.1118 15.5295 34.4976C15.4609 34.8833 15.7229 35.196 16.1147 35.196Z" fill="#4B0082"/>
<path fill-rule="evenodd" clip-rule="evenodd" d="M22.2201 29.7811H23.6388L22.1071 38.3968C22.6856 38.6662 23.0139 39.2815 22.8867 39.9975C22.7152 40.9618 21.7823 41.7436 20.8028 41.7436C19.8234 41.7436 19.1684 40.9618 19.3399 39.9975C19.4671 39.2816 20.0142 38.6663 20.6884 38.3968L22.2201 29.7811ZM20.4039 39.9975C20.3353 40.3833 20.5973 40.696 20.9891 40.696C21.3809 40.696 21.754 40.3833 21.8226 39.9975C21.8912 39.6118 21.6292 39.2991 21.2374 39.2991C20.8456 39.2991 20.4725 39.6118 20.4039 39.9975Z" fill="#4B0082"/>
<path fill-rule="evenodd" clip-rule="evenodd" d="M35.7926 11.6247C35.9566 12.2413 36.5049 12.6723 37.2322 12.6723C38.2116 12.6723 39.1445 11.8906 39.316 10.9263C39.4874 9.96196 38.8324 9.18024 37.853 9.18024C37.1258 9.18024 36.4242 9.6112 36.0409 10.2279L28.3564 10.2279L28.108 11.6247L35.7926 11.6247ZM36.8332 10.9263C36.7646 11.312 37.0266 11.6247 37.4184 11.6247C37.8102 11.6247 38.1833 11.312 38.2519 10.9263C38.3205 10.5405 38.0585 10.2279 37.6667 10.2279C37.275 10.2279 36.9018 10.5405 36.8332 10.9263Z" fill="#4B0082"/>
<path fill-rule="evenodd" clip-rule="evenodd" d="M33.6897 15.6405C32.9625 15.6405 32.4142 15.2096 32.2501 14.5929L27.5804 14.5929L27.8287 13.1961L32.4985 13.1961C32.8818 12.5794 33.5833 12.1485 34.3105 12.1485C35.29 12.1485 35.945 12.9302 35.7735 13.8945C35.6021 14.8588 34.6692 15.6405 33.6897 15.6405ZM33.876 14.5929C33.4842 14.5929 33.2222 14.2802 33.2908 13.8945C33.3594 13.5088 33.7325 13.1961 34.1243 13.1961C34.5161 13.1961 34.7781 13.5088 34.7095 13.8945C34.6409 14.2802 34.2678 14.5929 33.876 14.5929Z" fill="#4B0082"/>
<defs>
<linearGradient id="paint0_linear_2151_4998" x1="22.171" y1="19.2" x2="22.171" y2="28.6938" gradientUnits="userSpaceOnUse">
<stop stop-color="#4B0082"/>
<stop offset="1" stop-color="#7C00D6"/>
</linearGradient>
<linearGradient id="paint1_linear_2151_4998" x1="26.0231" y1="20.3877" x2="26.0231" y2="27.509" gradientUnits="userSpaceOnUse">
<stop stop-color="#4B0082"/>
<stop offset="1" stop-color="#7C00D6"/>
</linearGradient>
<linearGradient id="paint2_linear_2151_4998" x1="10.0801" y1="20.1001" x2="10.0801" y2="21.9378" gradientUnits="userSpaceOnUse">
<stop stop-color="#F5AC24"/>
<stop offset="1" stop-color="#FFF6E6"/>
</linearGradient>
<linearGradient id="paint3_linear_2151_4998" x1="10.2434" y1="23.0872" x2="10.2434" y2="24.51" gradientUnits="userSpaceOnUse">
<stop stop-color="#F5AC24"/>
<stop offset="1" stop-color="#FFF6E6"/>
</linearGradient>
<linearGradient id="paint4_linear_2151_4998" x1="11.4604" y1="25.7241" x2="11.4604" y2="26.8804" gradientUnits="userSpaceOnUse">
<stop stop-color="#F5AC24"/>
<stop offset="1" stop-color="#FFF6E6"/>
</linearGradient>
</defs>
</svg>
